<svg width="599" height="600" viewBox="0 0 599 600" fill="none" xmlns="http://www.w3.org/2000/svg">
<path d="M25.9508 373.772C24.8248 371.819 25.4943 369.32 27.4461 368.192L59.7401 349.515C61.6919 348.387 64.1869 349.055 65.3128 351.009L88.9396 392C90.0655 393.953 89.396 396.452 87.4443 397.581L55.1502 416.257C53.1984 417.385 50.7035 416.717 49.5776 414.763L25.9508 373.772Z" fill="#F4F4F4"/>
<path d="M61.1792 358.66C61.6847 358.367 62.3286 358.536 62.6173 359.037C62.906 359.538 62.7302 360.181 62.2246 360.474L49.4091 367.885C48.9035 368.177 48.2597 368.008 47.971 367.507C47.6823 367.007 47.8581 366.364 48.3636 366.071L61.1792 358.66Z" fill="#3E40F6"/>
<path d="M64.3154 364.101C64.821 363.809 65.4648 363.978 65.7535 364.479C66.0422 364.98 65.8664 365.623 65.3608 365.915L52.5453 373.326C52.0397 373.619 51.3959 373.45 51.1072 372.949C50.8185 372.448 50.9943 371.805 51.4999 371.513L64.3154 364.101Z" fill="#3E40F6"/>
<path d="M67.4516 369.543C67.9572 369.25 68.6011 369.419 68.8898 369.92C69.1784 370.421 69.0026 371.064 68.4971 371.356L55.6815 378.768C55.176 379.06 54.5321 378.891 54.2434 378.39C53.9547 377.889 54.1305 377.246 54.6361 376.954L67.4516 369.543Z" fill="#3E40F6"/>
<path d="M70.5879 374.984C71.0934 374.692 71.7373 374.861 72.026 375.362C72.3147 375.862 72.1389 376.505 71.6333 376.798L58.8178 384.209C58.3122 384.502 57.6683 384.333 57.3797 383.832C57.091 383.331 57.2668 382.688 57.7723 382.395L70.5879 374.984Z" fill="#3E40F6"/>
<path d="M73.7241 380.424C74.2297 380.132 74.8735 380.301 75.1622 380.802C75.4509 381.303 75.2751 381.946 74.7695 382.238L61.954 389.65C61.4484 389.942 60.8046 389.773 60.5159 389.272C60.2272 388.771 60.403 388.128 60.9086 387.836L73.7241 380.424Z" fill="#3E40F6"/>
<path d="M79.9971 391.307C80.5026 391.015 81.1465 391.184 81.4352 391.685C81.7239 392.186 81.548 392.829 81.0425 393.121L68.2269 400.532C67.7214 400.825 67.0775 400.656 66.7888 400.155C66.5001 399.654 66.6759 399.011 67.1815 398.719L79.9971 391.307Z" fill="#3E40F6"/>
<path d="M76.8603 385.866C77.3659 385.573 78.0098 385.742 78.2984 386.243C78.5871 386.744 78.4113 387.387 77.9058 387.68L65.0902 395.091C64.5847 395.383 63.9408 395.214 63.6521 394.714C63.3634 394.213 63.5392 393.57 64.0448 393.277L76.8603 385.866Z" fill="#3E40F6"/>
<path d="M6.00079 385.747C5.01417 384.035 5.39389 381.861 6.90238 380.584L36.6639 355.396C38.6063 353.753 41.5598 354.268 42.8303 356.472L72.9758 408.772C74.2463 410.977 73.2148 413.796 70.8223 414.659L34.1649 427.883C32.3069 428.553 30.2371 427.795 29.2505 426.084L6.00079 385.747Z" fill="url(#paint0_linear)"/>
<path fill-rule="evenodd" clip-rule="evenodd" d="M40.2065 378.243L42.6889 376.306L50.2456 402.107L47.7593 403.081L35.2062 390.316L39.2347 406.42L36.7484 407.394L21.2078 393.072L23.8304 391.025L35.3946 402.125L31.0975 385.353L32.9393 383.915L45.8834 397.258L40.2065 378.243Z" fill="white"/>
<path d="M75.3747 385.025C76.2303 382.67 78.8318 381.457 81.1854 382.315L118.778 396.021C121.132 396.879 122.346 399.483 121.49 401.838L103.507 451.33C102.651 453.684 100.05 454.897 97.6962 454.039L60.1037 440.334C57.75 439.476 56.5356 436.871 57.3912 434.517L75.3747 385.025Z" fill="#F4F4F4"/>
<path d="M99.8422 399.315C100.442 399.534 100.754 400.193 100.539 400.786C100.323 401.38 99.6616 401.683 99.0612 401.465L83.8436 395.917C83.2433 395.698 82.9315 395.039 83.1471 394.446C83.3628 393.852 84.0243 393.549 84.6246 393.767L99.8422 399.315Z" fill="#F19A0E"/>
<path d="M97.4994 405.763C98.0997 405.982 98.4115 406.64 98.1959 407.234C97.9803 407.827 97.3188 408.131 96.7185 407.912L81.5009 402.364C80.9006 402.145 80.5887 401.486 80.8044 400.893C81.02 400.299 81.6815 399.996 82.2818 400.215L97.4994 405.763Z" fill="#F19A0E"/>
<path d="M95.1566 412.211C95.7569 412.43 96.0688 413.088 95.8531 413.682C95.6375 414.275 94.976 414.579 94.3757 414.36L79.1581 408.812C78.5578 408.593 78.2459 407.935 78.4616 407.341C78.6772 406.748 79.3387 406.444 79.939 406.663L95.1566 412.211Z" fill="#F19A0E"/>
<path d="M92.8138 418.658C93.4142 418.877 93.726 419.536 93.5104 420.129C93.2947 420.722 92.6332 421.026 92.0329 420.807L76.8153 415.259C76.215 415.04 75.9032 414.382 76.1188 413.788C76.3345 413.195 76.9959 412.891 77.5962 413.11L92.8138 418.658Z" fill="#F19A0E"/>
<path d="M90.4711 425.105C91.0714 425.324 91.3832 425.983 91.1676 426.576C90.9519 427.17 90.2905 427.473 89.6901 427.255L74.4726 421.707C73.8722 421.488 73.5604 420.829 73.776 420.236C73.9917 419.642 74.6532 419.339 75.2535 419.557L90.4711 425.105Z" fill="#F19A0E"/>
<path d="M85.7855 438C86.3858 438.219 86.6977 438.877 86.482 439.471C86.2664 440.064 85.6049 440.368 85.0046 440.149L69.787 434.601C69.1867 434.382 68.8748 433.724 69.0905 433.13C69.3061 432.537 69.9676 432.233 70.5679 432.452L85.7855 438Z" fill="#F19A0E"/>
<path d="M88.1283 431.553C88.7286 431.772 89.0405 432.43 88.8248 433.024C88.6092 433.617 87.9477 433.921 87.3474 433.702L72.1298 428.154C71.5295 427.935 71.2176 427.276 71.4333 426.683C71.6489 426.09 72.3104 425.786 72.9107 426.005L88.1283 431.553Z" fill="#F19A0E"/>
<path d="M112.089 403.78C112.689 403.999 113.001 404.658 112.785 405.251C112.57 405.845 111.908 406.148 111.308 405.929L104.206 403.34C103.606 403.121 103.294 402.463 103.51 401.869C103.726 401.276 104.387 400.972 104.987 401.191L112.089 403.78Z" fill="#F19A0E"/>
<path d="M109.746 410.228C110.346 410.446 110.658 411.105 110.443 411.698C110.227 412.292 109.566 412.596 108.965 412.377L101.864 409.788C101.263 409.569 100.952 408.91 101.167 408.317C101.383 407.723 102.044 407.42 102.645 407.638L109.746 410.228Z" fill="#F19A0E"/>
<path d="M107.403 416.675C108.004 416.894 108.316 417.552 108.1 418.146C107.884 418.739 107.223 419.043 106.622 418.824L99.5209 416.235C98.9206 416.016 98.6087 415.358 98.8244 414.764C99.04 414.171 99.7015 413.867 100.302 414.086L107.403 416.675Z" fill="#F19A0E"/>
<path d="M105.061 423.123C105.661 423.342 105.973 424 105.757 424.594C105.541 425.187 104.88 425.491 104.28 425.272L97.1781 422.683C96.5778 422.464 96.266 421.806 96.4816 421.212C96.6973 420.619 97.3587 420.315 97.959 420.534L105.061 423.123Z" fill="#F19A0E"/>
<path d="M102.718 429.57C103.318 429.789 103.63 430.448 103.414 431.041C103.199 431.635 102.537 431.938 101.937 431.719L94.8353 429.13C94.235 428.912 93.9232 428.253 94.1388 427.66C94.3545 427.066 95.016 426.762 95.6163 426.981L102.718 429.57Z" fill="#F19A0E"/>
<path d="M98.0323 442.465C98.6326 442.684 98.9444 443.342 98.7288 443.936C98.5131 444.529 97.8517 444.833 97.2513 444.614L90.1498 442.025C89.5495 441.806 89.2376 441.148 89.4533 440.554C89.6689 439.961 90.3304 439.657 90.9307 439.876L98.0323 442.465Z" fill="#F19A0E"/>
<path d="M100.375 436.018C100.975 436.236 101.287 436.895 101.072 437.488C100.856 438.082 100.194 438.386 99.5941 438.167L92.4926 435.578C91.8923 435.359 91.5804 434.7 91.7961 434.107C92.0117 433.513 92.6732 433.21 93.2735 433.429L100.375 436.018Z" fill="#F19A0E"/>
<path d="M21.4194 431.892C21.092 429.85 22.6691 428 24.7371 428H109.276C111.344 428 112.921 429.85 112.594 431.892L100.628 506.516C99.8437 511.404 95.6257 515 90.6747 515H43.3383C38.3874 515 34.1693 511.404 33.3855 506.516L21.4194 431.892Z" fill="url(#paint1_linear)"/>
<path d="M67.0061 446.242V499.565" stroke="#B1B1B1" stroke-width="4" stroke-linecap="round" stroke-linejoin="round"/>
<path d="M50.0322 378.047C50.7825 375.981 52.9045 374.753 55.0686 375.13L97.9111 382.6C100.693 383.085 102.363 385.969 101.398 388.624L78.5607 451.473C77.5961 454.128 74.4666 455.263 72.0241 453.843L34.4111 431.981C32.5112 430.876 31.6742 428.569 32.4246 426.504L50.0322 378.047Z" fill="url(#paint2_linear)"/>
<path fill-rule="evenodd" clip-rule="evenodd" d="M67.7803 411.708L71.1737 426.632L66.9927 424.619L64.6138 413.886L56.3048 419.474L52.1238 417.461L63.5985 410.145L59.6321 397.604L64.1185 398.776L66.7429 408.027L75.1116 401.649L79.5683 402.813L67.7803 411.708Z" fill="white"/>
<path d="M94.3481 446.242L85.9352 499.565" stroke="#B1B1B1" stroke-width="4" stroke-linecap="round" stroke-linejoin="round"/>
<path d="M39.6641 446.242L48.077 499.565" stroke="#B1B1B1" stroke-width="4" stroke-linecap="round" stroke-linejoin="round"/>
<path d="M112.812 324C109.432 324 106.822 321.538 106.822 319C106.822 315.462 109.432 313 112.812 313H271.547V324H112.812Z" fill="#F19A0E"/>
<path d="M145.706 323.822H163.498L130.015 509.971C129.775 511.305 128.614 512.276 127.259 512.276H126.728C125.052 512.276 123.751 510.813 123.947 509.149L145.706 323.822Z" fill="#E5E5E5"/>
<path d="M274.054 323.822H291.846L273.558 509.75C273.417 511.183 272.212 512.276 270.772 512.276H270.192C268.606 512.276 267.337 510.96 267.393 509.375L274.054 323.822Z" fill="#E5E5E5"/>
<path d="M426.11 324H412.311L428.626 509.898C428.753 511.344 429.964 512.453 431.416 512.453H431.938C433.535 512.453 434.809 511.119 434.735 509.523L426.11 324Z" fill="#E5E5E5"/>
<path d="M551.9 325H538.102L554.416 510.898C554.543 512.344 555.754 513.453 557.206 513.453H557.728C559.325 513.453 560.599 512.119 560.525 510.523L551.9 325Z" fill="#E5E5E5"/>
<path d="M271.547 324V313H591.014C594.502 313 597.004 315.462 597.004 319C597.004 321.538 594.502 324 591.014 324H271.547Z" fill="#FFB133"/>
<path d="M374.375 382H405.849L420.105 476.263L400.257 481.317L374.375 382Z" fill="#FFB133"/>
<path d="M374.929 511.487C374.929 511.487 372.211 506.224 373.622 502.935C375.033 499.645 381.344 497.882 391.938 492.062C402.531 486.242 401.394 482.165 401.394 482.165C403.75 481.398 416.823 475.12 419.335 480.09C421.148 483.676 423.516 488.008 424.243 495.222C422.661 495.892 416.608 497.922 416.608 497.922L374.929 511.487Z" fill="#3E40F6"/>
<path d="M374.942 511.492L424.251 495.224L424.786 497.804C424.889 498.303 424.601 498.801 424.116 498.959L376.994 514.334C376.481 514.501 375.927 514.23 375.745 513.722L374.942 511.492Z" fill="#F4F4F4"/>
<path d="M399.659 494.005C402.276 492.17 402.13 487.832 400.127 486.138C397.539 488.657 395.644 489.876 395.644 489.876C395.644 489.876 393.656 491.066 390.29 492.993C391.75 496.084 397.042 495.841 399.659 494.005Z" fill="#3E9AF6"/>
<path d="M321.035 277H348.846L354.408 312H315.473L321.035 277Z" fill="#DBDBDB"/>
<path d="M324.03 277H351.841L357.403 311H320.116C319.252 311 318.595 310.226 318.734 309.374L324.03 277Z" fill="url(#paint3_linear)"/>
<path d="M315.473 312.4C315.473 311.627 316.1 311 316.873 311H356.003C356.776 311 357.403 311.627 357.403 312.4V312.6C357.403 313.373 356.776 314 356.003 314H316.873C316.1 314 315.473 313.373 315.473 312.6V312.4Z" fill="#D8D8D8"/>
<path d="M447.741 124.403C446.699 123.834 445.533 123.535 444.346 123.532L220.775 123C216.839 122.991 213.644 126.179 213.644 130.115V282.885C213.644 286.815 216.829 290 220.758 290H225.356V129.666L456.239 129.046L447.741 124.403Z" fill="#E5E5E5"/>
<path d="M459.233 130.627C459.233 126.703 456.058 123.521 452.135 123.512L225.766 123C221.83 122.991 218.635 126.179 218.635 130.115V264H459.233V130.627Z" fill="url(#paint4_linear)"/>
<path d="M447.253 139.692C447.253 136.548 444.705 134 441.562 134H237.305C234.162 134 231.613 136.548 231.613 139.692V246.308C231.613 249.452 234.162 252 237.305 252H441.562C444.705 252 447.253 249.452 447.253 246.308V139.692Z" fill="url(#paint5_linear)"/>
<path d="M459.233 264H218.635V283C218.635 286.866 221.769 290 225.635 290H452.233C456.099 290 459.233 286.866 459.233 283V264Z" fill="url(#paint6_linear)"/>
<path d="M340.432 282C337.675 282 335.44 279.761 335.44 277C335.44 274.239 337.675 272 340.432 272C343.188 272 345.423 274.239 345.423 277C345.423 279.761 343.188 282 340.432 282Z" fill="#E5E5E5"/>
<path d="M332.335 299.401C339.318 296.599 356.288 299.401 356.288 299.401L357.753 313.783H328.357C328.357 313.783 325.352 302.204 332.335 299.401Z" fill="#FEDCCF"/>
<path d="M486.255 228.033C483.276 222.047 480.346 213.123 486.255 210.116C492.163 207.109 503.64 210.116 507.65 217.144L527.621 257.673L500.869 257.673L486.255 228.033Z" fill="#3E40F6"/>
<path d="M446.276 187.793H471.414V221.425H446.276V187.793Z" fill="#FEDCCF"/>
<path d="M448.971 201.506C472.132 199.164 485.235 178.57 492.141 152.256C499.046 125.943 472.11 106.217 448.971 106.217C425.833 106.217 408.862 119.516 410.521 153.862C412.179 188.208 425.811 203.849 448.971 201.506Z" fill="url(#paint7_linear)"/>
<path d="M416.218 150.016C414.182 150.016 412.019 152.496 411.727 157.296C411.434 162.095 412.019 163.617 412.291 166.457C412.345 167.024 412.215 167.758 411.305 167.613C410.395 167.469 409.872 166.829 409.722 166.052C408.579 160.132 408.318 157.296 408.434 154.166C408.55 151.037 409.209 142.481 408.318 134.865L408.579 135.525C408.483 134.631 408.375 133.741 408.434 132.864C409.722 113.772 418.655 91.5961 428.01 85.2488C431.84 82.6495 421.497 101.306 426.72 100.027C429.423 99.3647 431.928 94.9069 439.51 91.1954C441.13 90.4021 434.759 97.4816 439.51 98.4441C454.897 101.562 495.185 107.095 494.158 138.349C492.875 177.432 486.706 184.008 462.411 184.008C444.91 184.008 428.133 165.399 419.704 151.968C419.704 151.968 418.254 150.016 416.218 150.016Z" fill="url(#paint8_linear)"/>
<path d="M417.64 219.427C417.395 215.381 419.687 211.66 423.597 210.591C430.273 208.767 442.276 206.43 459.954 206.43C475.665 206.43 488.756 208.276 497.454 209.967C503.923 211.225 507.484 217.79 505.632 224.114C501.628 237.793 495.141 260.684 492.196 275.097C487.776 296.734 482.398 343.039 482.398 343.039H421.255C421.255 343.039 421.965 308.311 421.255 287.312C420.7 270.876 418.549 234.474 417.64 219.427Z" fill="url(#paint9_linear)"/>
<path d="M416.115 159.939C418.794 160.269 421.424 156.8 421.989 152.191C422.554 147.582 420.84 143.579 418.16 143.249C415.481 142.919 412.851 146.389 412.286 150.998C411.721 155.607 413.435 159.61 416.115 159.939Z" fill="#FCC9B6"/>
<path d="M417.07 218.889C418.691 212.464 425.206 208.572 431.62 210.196C438.035 211.82 441.92 218.346 440.299 224.771L420.192 304.441C418.847 309.768 414.062 313.5 408.577 313.5H405.441H358.408C351.791 313.5 351.791 289.5 358.408 289.5H399.249L417.07 218.889Z" fill="#3E40F6"/>
<path d="M389.68 382.386C384.563 382.386 380.271 386.25 379.735 391.339L369.552 488.037H346.864V378.182C346.864 359.16 362.057 343.62 381.074 343.191L421.008 342.29L463.292 341.335V382.386H389.68Z" fill="url(#paint10_linear)"/>
<path d="M462.253 329.682C464.003 310.417 469.522 289.292 478.81 266.307C480.947 261.02 486.072 257.56 491.766 257.56L588.385 257.56C589.929 257.56 591.18 258.813 591.18 260.36C591.18 260.829 591.062 261.291 590.838 261.703C576.493 287.98 565.109 324.147 564.874 361.514C564.723 385.54 569.05 380.13 569.05 391.035C569.05 396.452 564.723 400.844 559.385 400.844H386.114C380.777 400.844 376.45 396.452 376.45 391.035C376.45 385.617 380.777 381.226 386.114 381.226H461.78C460.298 366.648 460.455 349.467 462.253 329.682Z" fill="#DFEFFF"/>
<path d="M346.718 372.16C346.718 405.153 346.889 488.006 346.889 488.006H349.984C349.984 488.006 353.163 405.652 353.163 375.955C353.163 346.258 393.259 342.96 393.259 342.96C393.259 342.96 348.124 340.326 346.718 372.16Z" fill="#FFB133"/>
<path d="M133.777 228.2C133.777 226.433 135.21 225 136.977 225H265.352C267.119 225 268.552 226.433 268.552 228.2V305H133.777V228.2Z" fill="#3E9AF6"/>
<path d="M138.769 228.2C138.769 226.433 140.201 225 141.969 225H270.344C272.111 225 273.544 226.433 273.544 228.2V305H138.769V228.2Z" fill="url(#paint11_linear)"/>
<path d="M143.76 230H268.551V305H143.76V230Z" fill="url(#paint12_linear)"/>
<path d="M118.802 305H279.533V309.8C279.533 311.567 278.101 313 276.333 313H122.802C120.593 313 118.802 311.209 118.802 309V305Z" fill="#3E9AF6"/>
<path d="M123.793 305H284.525V309.8C284.525 311.567 283.092 313 281.325 313H126.993C125.226 313 123.793 311.567 123.793 309.8V305Z" fill="url(#paint13_linear)"/>
<path d="M186.688 305H225.623V305.8C225.623 307.567 224.191 309 222.423 309H189.888C188.121 309 186.688 307.567 186.688 305.8V305Z" fill="#FADEB1"/>
<path d="M163.343 249H178.702" stroke="#3E40F6" stroke-width="3.2" stroke-linecap="round" stroke-linejoin="round"/>
<path d="M193.302 258.667H222.628" stroke="#3E40F6" stroke-width="3.2" stroke-linecap="round" stroke-linejoin="round"/>
<path d="M163.352 269.417H192.679" stroke="#3E40F6" stroke-width="3.2" stroke-linecap="round" stroke-linejoin="round"/>
<path d="M228.252 258.403H246.588" stroke="#3E40F6" stroke-width="3.2" stroke-linecap="round" stroke-linejoin="round"/>
<path d="M199.301 269.403H217.637" stroke="#3E40F6" stroke-width="3.2" stroke-linecap="round" stroke-linejoin="round"/>
<path d="M163.333 258.417H185.69" stroke="#3E40F6" stroke-width="3.2" stroke-linecap="round" stroke-linejoin="round"/>
<path d="M224.231 269.417H246.588" stroke="#3E40F6" stroke-width="3.2" stroke-linecap="round" stroke-linejoin="round"/>
<path d="M233.46 284.122C232.154 282.526 232.382 280.167 233.968 278.853C235.554 277.539 237.899 277.768 239.205 279.364L261.714 306.878C263.02 308.474 262.792 310.833 261.206 312.147C259.619 313.461 257.275 313.232 255.969 311.636L233.46 284.122Z" fill="url(#paint14_linear)"/>
<path fill-rule="evenodd" clip-rule="evenodd" d="M221.63 285C233.76 285 243.593 275.15 243.593 263C243.593 250.85 233.76 241 221.63 241C209.5 241 199.667 250.85 199.667 263C199.667 275.15 209.5 285 221.63 285Z" fill="#DFEFFF" fill-opacity="0.7" stroke="url(#paint15_linear)" stroke-width="5.12"/>
<path d="M284.525 168.294H382.362V224.928C382.362 226.624 380.986 228 379.29 228H287.597C285.9 228 284.525 226.624 284.525 224.928V168.294Z" fill="url(#paint16_linear)"/>
<path d="M332.424 182.706H341.597" stroke="#3E40F6" stroke-width="2.048" stroke-linecap="round" stroke-linejoin="round"/>
<path d="M294.019 183.135H306.249" stroke="#3E40F6" stroke-width="2.048" stroke-linecap="round" stroke-linejoin="round"/>
<path d="M311.532 183.221H325.8" stroke="#3E40F6" stroke-width="2.048" stroke-linecap="round" stroke-linejoin="round"/>
<path d="M348.73 198.147H357.903" stroke="#3E40F6" stroke-width="2.048" stroke-linecap="round" stroke-linejoin="round"/>
<path d="M310.325 198.576H322.555" stroke="#3E40F6" stroke-width="2.048" stroke-linecap="round" stroke-linejoin="round"/>
<path d="M327.838 198.661H342.106" stroke="#3E40F6" stroke-width="2.048" stroke-linecap="round" stroke-linejoin="round"/>
<path d="M284.525 161.072C284.525 159.375 285.9 158 287.597 158H379.29C380.986 158 382.362 159.375 382.362 161.072V168.294H284.525V161.072Z" fill="url(#paint17_linear)"/>
<path d="M299.604 165.283C300.707 165.283 301.601 164.388 301.601 163.283C301.601 162.179 300.707 161.283 299.604 161.283C298.501 161.283 297.607 162.179 297.607 163.283C297.607 164.388 298.501 165.283 299.604 165.283Z" fill="white"/>
<path d="M307.59 165.283C308.693 165.283 309.587 164.388 309.587 163.283C309.587 162.179 308.693 161.283 307.59 161.283C306.488 161.283 305.594 162.179 305.594 163.283C305.594 164.388 306.488 165.283 307.59 165.283Z" fill="#3E40F6"/>
<path d="M291.617 165.283C292.72 165.283 293.614 164.388 293.614 163.283C293.614 162.179 292.72 161.283 291.617 161.283C290.515 161.283 289.621 162.179 289.621 163.283C289.621 164.388 290.515 165.283 291.617 165.283Z" fill="#F19A0E"/>
<path d="M294.011 176.529H301.85" stroke="#F19A0E" stroke-width="2.048" stroke-linecap="round" stroke-linejoin="round"/>
<path d="M296.049 212.815H303.888" stroke="#F19A0E" stroke-width="2.048" stroke-linecap="round" stroke-linejoin="round"/>
<path d="M304.908 189.912H320.195" stroke="#F19A0E" stroke-width="2.048" stroke-linecap="round" stroke-linejoin="round"/>
<path d="M326.31 189.912H335.482" stroke="#F19A0E" stroke-width="2.048" stroke-linecap="round" stroke-linejoin="round"/>
<path d="M340.577 189.912H352.807" stroke="#F19A0E" stroke-width="2.048" stroke-linecap="round" stroke-linejoin="round"/>
<path d="M295.735 205.353H311.022" stroke="#3E40F6" stroke-width="2.048" stroke-linecap="round" stroke-linejoin="round"/>
<path d="M317.137 205.353H326.309" stroke="#3E40F6" stroke-width="2.048" stroke-linecap="round" stroke-linejoin="round"/>
<path d="M331.405 205.353H343.635" stroke="#3E40F6" stroke-width="2.048" stroke-linecap="round" stroke-linejoin="round"/>
<path d="M310.282 510.297C310.282 510.297 309.204 503.738 311.847 500.719C314.491 497.699 321.834 498.01 335.151 495.479C348.467 492.948 348.664 488.203 348.664 488.203C351.444 488.203 367.563 486.045 368.524 492.22C369.217 496.674 370.244 502.119 368.524 510.068C366.604 510.233 359.443 510.297 359.443 510.297H310.282Z" fill="#3E40F6"/>
<path d="M310.294 510.308L368.509 510.06L368.553 512.731C368.562 513.288 368.115 513.745 367.558 513.747L311.436 513.996C310.902 513.999 310.46 513.58 310.433 513.047L310.294 510.308Z" fill="#F4F4F4"/>
<path d="M342.716 500.234C346.144 499.185 347.489 494.506 345.938 492.003C342.305 493.792 339.861 494.434 339.861 494.434C339.861 494.434 337.328 495.014 333.071 495.9C333.559 499.706 339.289 501.284 342.716 500.234Z" fill="#3E9AF6"/>
<path d="M464.475 401H482.445V449.901C482.445 453.822 478.422 457 473.46 457C468.497 457 464.475 453.822 464.475 449.901V401Z" fill="#3E9AF6"/>
<path d="M468.218 411H478.202V491.514H468.218V411Z" fill="#3E9AF6"/>
<path d="M474.208 506C474.208 502.134 477.337 499 481.197 499C485.056 499 488.185 502.134 488.185 506V508C488.185 511.866 485.056 515 481.197 515C477.337 515 474.208 511.866 474.208 508L474.208 506Z" fill="#3400DF"/>
<path d="M533.11 491C535.316 491 537.104 492.791 537.104 495C537.104 497.209 535.316 499 533.11 499H413.31C411.105 499 409.317 497.209 409.317 495C409.317 492.791 411.105 491 413.31 491H533.11Z" fill="#3E9AF6"/>
<path d="M409.317 506C409.317 502.134 412.446 499 416.305 499C420.165 499 423.294 502.134 423.294 506V508C423.294 511.866 420.165 515 416.305 515C412.446 515 409.317 511.866 409.317 508L409.317 506Z" fill="#3400DF"/>
<path d="M524.125 506C524.125 502.134 527.254 499 531.113 499C534.973 499 538.102 502.134 538.102 506V508C538.102 511.866 534.973 515 531.113 515C527.254 515 524.125 511.866 524.125 508L524.125 506Z" fill="#3400DF"/>
<path d="M439.267 506C439.267 502.134 442.395 499 446.255 499C450.114 499 453.243 502.134 453.243 506V508C453.243 511.866 450.114 515 446.255 515C442.395 515 439.267 511.866 439.267 508L439.267 506Z" fill="#3400DF"/>
<defs>
<linearGradient id="paint0_linear" x1="33.2481" y1="437.578" x2="76.2984" y2="408.498" gradientUnits="userSpaceOnUse">
<stop stop-color="#3E9AF6"/>
<stop offset="0.391282" stop-color="#3E83F6"/>
<stop offset="1" stop-color="#3E40F6"/>
</linearGradient>
<linearGradient id="paint1_linear" x1="12.6447" y1="511.881" x2="107.164" y2="510.965" gradientUnits="userSpaceOnUse">
<stop stop-color="#F4F4F4"/>
<stop offset="1" stop-color="#DADADA"/>
</linearGradient>
<linearGradient id="paint2_linear" x1="26.3746" y1="443.153" x2="82.2398" y2="463.453" gradientUnits="userSpaceOnUse">
<stop stop-color="#FFCA74"/>
<stop offset="1" stop-color="#DF8A00"/>
</linearGradient>
<linearGradient id="paint3_linear" x1="314.742" y1="309.781" x2="355.068" y2="309.354" gradientUnits="userSpaceOnUse">
<stop stop-color="#F4F4F4"/>
<stop offset="1" stop-color="#DADADA"/>
</linearGradient>
<linearGradient id="paint4_linear" x1="500.957" y1="300.624" x2="218.637" y2="300.63" gradientUnits="userSpaceOnUse">
<stop stop-color="#3E9AF6"/>
<stop offset="0.544617" stop-color="#3E83F6"/>
<stop offset="1" stop-color="#3E40F6"/>
</linearGradient>
<linearGradient id="paint5_linear" x1="187.382" y1="114.429" x2="447.253" y2="114.429" gradientUnits="userSpaceOnUse">
<stop stop-color="#F9F9F9"/>
<stop offset="1" stop-color="#EAEAEA"/>
</linearGradient>
<linearGradient id="paint6_linear" x1="458.838" y1="289.773" x2="191.973" y2="289.773" gradientUnits="userSpaceOnUse">
<stop stop-color="#F9F9F9"/>
<stop offset="1" stop-color="#EAEAEA"/>
</linearGradient>
<linearGradient id="paint7_linear" x1="420.189" y1="184.329" x2="437.733" y2="184.329" gradientUnits="userSpaceOnUse">
<stop stop-color="#FFD4C4"/>
<stop offset="1" stop-color="#FFDED2"/>
</linearGradient>
<linearGradient id="paint8_linear" x1="412.687" y1="180.583" x2="492.636" y2="183.311" gradientUnits="userSpaceOnUse">
<stop stop-color="#634B36"/>
<stop offset="1" stop-color="#37291C"/>
</linearGradient>
<linearGradient id="paint9_linear" x1="427.644" y1="328.451" x2="528.466" y2="328.451" gradientUnits="userSpaceOnUse">
<stop stop-color="#7879F7"/>
<stop offset="1" stop-color="#3E40F6"/>
</linearGradient>
<linearGradient id="paint10_linear" x1="390.12" y1="347.931" x2="395.765" y2="385.316" gradientUnits="userSpaceOnUse">
<stop stop-color="#FDF1D9"/>
<stop offset="1" stop-color="#FFCF83"/>
</linearGradient>
<linearGradient id="paint11_linear" x1="273.545" y1="231.908" x2="115.399" y2="231.905" gradientUnits="userSpaceOnUse">
<stop stop-color="#3E9AF6"/>
<stop offset="0.544617" stop-color="#3E83F6"/>
<stop offset="1" stop-color="#3E40F6"/>
</linearGradient>
<linearGradient id="paint12_linear" x1="143.76" y1="304.346" x2="282.175" y2="304.346" gradientUnits="userSpaceOnUse">
<stop stop-color="#F9F9F9"/>
<stop offset="1" stop-color="#EAEAEA"/>
</linearGradient>
<linearGradient id="paint13_linear" x1="284.526" y1="305.691" x2="95.9228" y2="305.642" gradientUnits="userSpaceOnUse">
<stop stop-color="#3E9AF6"/>
<stop offset="0.544617" stop-color="#3E83F6"/>
<stop offset="1" stop-color="#3E40F6"/>
</linearGradient>
<linearGradient id="paint14_linear" x1="240.217" y1="310.515" x2="260.247" y2="300.326" gradientUnits="userSpaceOnUse">
<stop stop-color="#FFCA74"/>
<stop offset="1" stop-color="#DF8A00"/>
</linearGradient>
<linearGradient id="paint15_linear" x1="215.532" y1="295.708" x2="262.604" y2="272.211" gradientUnits="userSpaceOnUse">
<stop stop-color="#FFCA74"/>
<stop offset="1" stop-color="#DF8A00"/>
</linearGradient>
<linearGradient id="paint16_linear" x1="284.525" y1="227.479" x2="393.042" y2="227.479" gradientUnits="userSpaceOnUse">
<stop stop-color="white"/>
<stop offset="1" stop-color="#F1F1F1"/>
</linearGradient>
<linearGradient id="paint17_linear" x1="284.525" y1="168.74" x2="390.836" y2="168.74" gradientUnits="userSpaceOnUse">
<stop stop-color="#FFCA74"/>
<stop offset="1" stop-color="#DF8A00"/>
</linearGradient>
</defs>
</svg>
